#!OML:ASF F:\VICON\USERDATA\INSTALL\rory3\rory3.ASF
:FULLY-SPECIFIED
:DEGREES
825
root -0.143423 17.7247 1.15586 366.424 -0.597097 356.916
lowerback 13.1451 3.46309 1.53279
upperback -0.210238 4.88965 0.704487
thorax -7.52734 2.33042 -1.05959
lowerneck -24.1261 10.2605 -4.73171
upperneck 24.7552 18.7563 -7.35495
head 12.608 6.83914 1.30274
rclavicle -1.20016e-014 6.06293e-015
rhumerus -29.9645 3.24991 -79.5867
rradius 49.3249
rwrist 23.386
rhand -25.6655 6.9554
rfingers 7.12502
rthumb 0.868796 -23.0226
lclavicle -1.20016e-014 6.06293e-015
lhumerus -22.2438 -7.49261 85.1669
lradius 42.7167
lwrist -2.61225
lhand -17.1902 23.0619
lfingers 7.12502
lthumb 9.05182 52.8476
rfemur -25.7069 -0.369995 10.8771
rtibia 54.0894
rfoot -12.0502 -11.9669
rtoes -2.03311
lfemur -20.0158 -9.77791 -19.9089
ltibia 29.5948
lfoot -6.7447 -27.3713
ltoes 15.0856
826
root -0.141873 17.727 1.20676 366.149 0.0142337 356.933
lowerback 13.078 3.44978 1.51676
upperback -0.165687 4.86898 0.725909
thorax -7.4454 2.32338 -1.01779
lowerneck -23.9114 10.3945 -4.6247
upperneck 24.963 18.9732 -7.47234
head 12.6808 6.92049 1.28037
rclavicle -2.73329e-014 -6.85807e-015
rhumerus -30.0298 3.33882 -79.5445
rradius 49.5
rwrist 23.1699
rhand -25.7641 7.26422
rfingers 7.12502
rthumb 0.773622 -22.7141
lclavicle -2.73329e-014 -6.85807e-015
lhumerus -22.1357 -6.18032 84.673
lradius 42.286
lwrist -1.88688
lhand -17.0549 24.3926
lfingers 7.12502
lthumb 9.1824 54.1727
rfemur -25.6311 0.0985786 11.1175
rtibia 53.3726
rfoot -12.3482 -11.9137
rtoes -2.25242
lfemur -19.4316 -9.93775 -19.9924
ltibia 29.3673
lfoot -7.88437 -27.8258
ltoes 12.728
827
root -0.135996 17.7297 1.25542 365.933 0.673138 357.024
lowerback 13.0149 3.43896 1.53471
upperback -0.120173 4.85187 0.68326
thorax -7.35597 2.31563 -1.06327
lowerneck -23.7712 10.5075 -4.49942
upperneck 25.1548 19.1642 -7.60673
head 12.7664 6.98722 1.24886
rclavicle 2.87492e-014 5.36719e-015
rhumerus -30.0375 3.36704 -79.5204
rradius 49.6488
rwrist 22.8524
rhand -25.9934 7.25853
rfingers 7.12502
rthumb 0.552142 -22.7205
lclavicle 2.87492e-014 5.36719e-015
lhumerus -21.9669 -4.72955 84.1667
lradius 41.8548
lwrist -1.21881
lhand -16.9988 25.4121
lfingers 7.12502
lthumb 9.23649 55.1898
rfemur -25.6167 0.408853 11.2588
rtibia 52.6044
rfoot -12.6354 -11.9768
rtoes -2.67449
lfemur -18.9527 -10.0898 -20.1495
ltibia 29.1889
lfoot -9.37146 -28.2993
ltoes 9.47204
828
root -0.128045 17.7311 1.30577 365.777 1.3425 357.043
lowerback 12.9271 3.41661 1.65654
upperback -0.138021 4.83672 0.64593
thorax -7.31245 2.30417 -1.1622
lowerneck -23.6705 10.5455 -4.54372
upperneck 25.3755 19.2841 -7.63333
head 12.8393 7.01872 1.26846
rclavicle -2.0773e-014 1.25234e-014
rhumerus -30.1745 3.35823 -79.5125
rradius 49.8291
rwrist 22.6668
rhand -26.0551 7.45607
rfingers 7.12502
rthumb 0.492489 -22.5231
lclavicle -2.0773e-014 1.25234e-014
lhumerus -21.884 -2.89221 83.6368
lradius 41.3325
lwrist -1.01486
lhand -16.9348 25.9172
lfingers 7.12502
lthumb 9.29825 55.6922
rfemur -25.667 0.678652 11.4761
rtibia 51.8097
rfoot -12.8623 -12.0692
rtoes -2.82125
lfemur -18.5807 -10.2251 -20.2132
ltibia 29.0511
lfoot -9.87063 -28.8685
ltoes 8.32973
829
root -0.120695 17.7295 1.35649 365.691 2.00172 357.056
lowerback 12.7417 3.39229 1.74231
upperback -0.174078 4.81213 0.6139
thorax -7.23721 2.29039 -1.22789
lowerneck -23.4828 10.5251 -4.67474
upperneck 25.528 19.3048 -7.58576
head 12.8461 7.02039 1.30035
rclavicle 3.37685e-014 -2.38542e-015
rhumerus -30.4007 3.38879 -79.481
rradius 50.1842
rwrist 22.7431
rhand -25.8693 7.49868
rfingers 7.12502
rthumb 0.672022 -22.48
lclavicle 3.37685e-014 -2.38542e-015
lhumerus -21.7567 -1.07725 83.0912
lradius 40.7001
lwrist -0.959205
lhand -17.1378 26.125
lfingers 7.12502
lthumb 9.10242 55.9086
rfemur -25.8061 0.975414 11.6839
rtibia 51.0094
rfoot -13.1729 -12.0824
rtoes -2.2341
lfemur -18.304 -10.3255 -20.2708
ltibia 28.9401
lfoot -9.73891 -29.4216
ltoes 8.6532
830
root -0.113467 17.7244 1.40499 365.615 2.61157 357.147
lowerback 12.553 3.40525 1.72602
upperback -0.189616 4.81879 0.550375
thorax -7.14288 2.29538 -1.27454
lowerneck -23.2907 10.4766 -4.61226
upperneck 25.6535 19.2718 -7.72031
head 12.8857 6.99154 1.23177
rclavicle 1.69464e-014 -2.66371e-014
rhumerus -30.631 3.37872 -79.4486
rradius 50.5977
rwrist 22.85
rhand -25.5192 7.20585
rfingers 7.12502
rthumb 1.01014 -22.7715
lclavicle 1.69464e-014 -2.66371e-014
lhumerus -21.6376 0.292149 82.577
lradius 40.0939
lwrist -0.434828
lhand -17.5934 26.2845
lfingers 7.12502
lthumb 8.66271 56.0867
rfemur -25.9893 1.28764 11.8004
rtibia 50.2086
rfoot -13.62 -12.0364
rtoes -1.74269
lfemur -18.0406 -10.4431 -20.4109
ltibia 28.8285
lfoot -8.90925 -29.8769
ltoes 10.0142
831
root -0.10601 17.7192 1.45509 365.579 3.13956 357.336
lowerback 12.2906 3.45149 1.59025
upperback -0.195565 4.84915 0.462847
thorax -7.00375 2.31681 -1.27852
lowerneck -23.0566 10.4303 -4.45858
upperneck 25.7209 19.2371 -7.9784
head 12.92 6.95974 1.10267
rclavicle -4.37326e-015 -1.46107e-014
rhumerus -30.763 3.37758 -79.4326
rradius 50.779
rwrist 22.6857
rhand -25.4106 7.10138
rfingers 7.12502
rthumb 1.11504 -22.8754
lclavicle -4.37326e-015 -1.46107e-014
lhumerus -21.6361 1.76329 82.1088
lradius 39.6297
lwrist 0.105899
lhand -18.5695 26.0676
lfingers 7.12502
lthumb 7.72069 55.9066
rfemur -26.2433 1.50136 11.7975
rtibia 49.4061
rfoot -14.2338 -11.6579
rtoes -1.63335
lfemur -17.8078 -10.5422 -20.6599
ltibia 28.7377
lfoot -7.95452 -30.355
ltoes 11.6257
832
root -0.0988278 17.7146 1.50527 365.548 3.74401 357.487
lowerback 12.0295 3.46547 1.47352
upperback -0.189522 4.8445 0.436005
thorax -6.85752 2.3216 -1.22262
lowerneck -22.9325 10.3841 -4.59519
upperneck 25.9283 19.2549 -7.97448
head 12.9685 6.94512 1.12499
rclavicle -3.07619e-014 1.0138e-014
rhumerus -30.8483 3.42524 -79.3716
rradius 50.9153
rwrist 22.4189
rhand -25.4327 7.19907
rfingers 7.12502
rthumb 1.09369 -22.7779
lclavicle -3.07619e-014 1.0138e-014
lhumerus -21.6665 3.35752 81.7461
lradius 39.3146
lwrist 0.642058
lhand -19.8251 25.3406
lfingers 7.12502
lthumb 6.5087 55.2206
rfemur -26.4864 1.60974 11.8592
rtibia 48.5683
rfoot -14.9314 -11.2165
rtoes -1.87834
lfemur -17.595 -10.6022 -20.8632
ltibia 28.692
lfoot -7.72907 -30.9759
ltoes 12.514
833
root -0.0961551 17.7008 1.55057 365.489 4.44595 357.566
lowerback 11.9201 3.42564 1.38274
upperback -0.171349 4.77873 0.463199
thorax -6.78792 2.29474 -1.1241
lowerneck -22.9149 10.3336 -4.81044
upperneck 26.1138 19.2982 -7.96514
head 13.0217 6.93128 1.17025
rclavicle 6.08778e-015 2.24627e-014
rhumerus -30.8959 3.47464 -79.2992
rradius 51.1132
rwrist 22.3951
rhand -25.2429 7.2177
rfingers 7.12502
rthumb 1.27694 -22.7582
lclavicle 6.08778e-015 2.24627e-014
lhumerus -21.4511 4.74209 81.4124
lradius 38.6597
lwrist 1.3891
lhand -20.5712 25.1217
lfingers 7.12502
lthumb 5.78835 55.0226
rfemur -26.657 1.80394 12.0048
rtibia 47.6783
rfoot -15.4462 -10.8842
rtoes -1.98859
lfemur -17.3917 -10.6374 -20.9748
ltibia 28.6227
lfoot -7.04934 -31.5968
ltoes 14.3251
834
root -0.0924616 17.6882 1.59671 365.482 5.08469 357.553
lowerback 11.774 3.38981 1.38056
upperback -0.172741 4.73068 0.493242
thorax -6.71098 2.27361 -1.07337
lowerneck -22.8974 10.281 -4.87838
upperneck 26.2828 19.3038 -8.01924
head 13.091 6.90617 1.16582
rclavicle -2.55687e-014 -1.40143e-014
rhumerus -30.9741 3.55216 -79.2786
rradius 51.2732
rwrist 22.4268
rhand -25.3447 7.18036
rfingers 7.12502
rthumb 1.17865 -22.7961
lclavicle -2.55687e-014 -1.40143e-014
lhumerus -21.1394 6.07312 80.9942
lradius 37.6916
lwrist 1.94731
lhand -20.4672 25.5694
lfingers 7.12502
lthumb 5.88879 55.4675
rfemur -26.8841 2.07541 12.2235
rtibia 46.7312
rfoot -15.5831 -10.6572
rtoes -3.02679
lfemur -17.2092 -10.6432 -20.9774
ltibia 28.4348
lfoot -6.61858 -32.0951
ltoes 16.1172
835
root -0.078634 17.7005 1.6516 365.395 5.59683 357.51
lowerback 11.6154 3.40423 1.48274
upperback -0.168255 4.76079 0.488911
thorax -6.60747 2.28707 -1.12876
lowerneck -22.9004 10.348 -4.79354
upperneck 26.7157 19.446 -7.963
head 13.2759 6.94618 1.21318
rclavicle 1.40143e-014 -1.6201e-014
rhumerus -31.1237 3.58831 -79.2778
rradius 51.366
rwrist 22.364
rhand -25.5151 7.25003
rfingers 7.12502
rthumb 1.01403 -22.7273
lclavicle 1.40143e-014 -1.6201e-014
lhumerus -20.9229 7.30868 80.5351
lradius 36.7079
lwrist 2.22074
lhand -20.6644 25.7992
lfingers 7.12502
lthumb 5.69836 55.7026
rfemur -27.1561 2.40313 12.4339
rtibia 45.7521
rfoot -15.4588 -10.9094
rtoes -5.30733
lfemur -16.8871 -10.7102 -20.9758
ltibia 28.2934
lfoot -6.37877 -32.7374
ltoes 9.74914
